<svg width="47" height="47" viewBox="0 0 47 47" fill="none" xmlns="http://www.w3.org/2000/svg">
<circle cx="23.5" cy="23.5" r="23.5" fill="#FF7346"/>
<path d="M23.5 27.125C25.502 27.125 27.125 25.502 27.125 23.5C27.125 21.498 25.502 19.875 23.5 19.875C21.498 19.875 19.875 21.498 19.875 23.5C19.875 25.502 21.498 27.125 23.5 27.125Z" fill="white"/>
<path d="M28.4844 12.1719H18.5156C16.8337 12.1738 15.2213 12.8427 14.032 14.032C12.8427 15.2213 12.1738 16.8337 12.1719 18.5156V28.4844C12.1738 30.1663 12.8427 31.7787 14.032 32.968C15.2213 34.1573 16.8337 34.8262 18.5156 34.8281H28.4844C30.1663 34.8262 31.7787 34.1573 32.968 32.968C34.1573 31.7787 34.8262 30.1663 34.8281 28.4844V18.5156C34.8262 16.8337 34.1573 15.2213 32.968 14.032C31.7787 12.8427 30.1663 12.1738 28.4844 12.1719ZM23.5 28.9375C22.4246 28.9375 21.3733 28.6186 20.4791 28.0211C19.5849 27.4236 18.888 26.5744 18.4764 25.5808C18.0649 24.5873 17.9572 23.494 18.167 22.4392C18.3768 21.3844 18.8947 20.4156 19.6551 19.6551C20.4156 18.8947 21.3844 18.3768 22.4392 18.167C23.494 17.9572 24.5873 18.0649 25.5808 18.4764C26.5744 18.888 27.4236 19.5849 28.0211 20.4791C28.6186 21.3733 28.9375 22.4246 28.9375 23.5C28.9359 24.9416 28.3625 26.3237 27.3431 27.3431C26.3237 28.3625 24.9416 28.9359 23.5 28.9375ZM29.3906 18.9688C29.1218 18.9688 28.8589 18.889 28.6354 18.7397C28.4118 18.5903 28.2376 18.378 28.1347 18.1296C28.0318 17.8812 28.0049 17.6079 28.0574 17.3442C28.1098 17.0805 28.2393 16.8383 28.4294 16.6482C28.6195 16.458 28.8617 16.3286 29.1254 16.2761C29.3891 16.2237 29.6624 16.2506 29.9108 16.3535C30.1592 16.4564 30.3715 16.6306 30.5209 16.8541C30.6703 17.0777 30.75 17.3405 30.75 17.6094C30.75 17.9699 30.6068 18.3157 30.3518 18.5706C30.0969 18.8255 29.7512 18.9688 29.3906 18.9688Z" fill="white"/>
</svg>
