<svg width="2360" height="2368" viewBox="0 0 2360 2368" fill="none" xmlns="http://www.w3.org/2000/svg">
<path d="M201.379 1139.86H295.29L371.079 1317.42L350.569 1318.97L416.876 1139.79H524.203L368.691 1505.25L258.203 1276.33L157.198 1505.25L0.140625 1139.79H107.468L191.124 1331.61L153.264 1326.06L219.571 1179.26L201.379 1139.86ZM550.191 1308.01C550.191 1272.75 558.48 1241.21 574.986 1213.26C591.633 1185.37 614.953 1163.39 644.945 1147.3C674.938 1131.29 709.426 1123.35 748.339 1123.35C787.814 1123.35 822.021 1131.36 850.96 1147.3C879.899 1163.39 902.095 1185.37 917.548 1213.26C933.141 1241.14 940.938 1272.75 940.938 1308.01C940.938 1343.27 933.141 1374.95 917.548 1403.05C902.095 1431.28 879.899 1453.55 850.96 1469.85C822.021 1486.14 787.322 1494.29 746.794 1494.29C708.934 1494.29 675.079 1486.91 645.297 1472.16C615.585 1457.41 592.336 1436.13 575.548 1408.25C558.62 1380.36 550.191 1346.93 550.191 1308.01ZM661.522 1308.79C661.522 1326.7 665.175 1342.85 672.55 1357.25C679.925 1371.79 689.899 1383.24 702.542 1391.67C715.186 1400.1 729.374 1404.31 745.178 1404.31C762.528 1404.31 777.559 1400.1 790.132 1391.67C802.775 1383.24 812.468 1371.79 819.352 1357.25C826.165 1342.85 829.607 1326.7 829.607 1308.79C829.607 1290.38 826.165 1274.09 819.352 1259.83C812.468 1245.64 802.775 1234.33 790.132 1225.9C777.489 1217.47 762.528 1213.26 745.178 1213.26C729.374 1213.26 715.186 1217.47 702.542 1225.9C689.899 1234.33 679.925 1245.64 672.55 1259.83C665.175 1274.09 661.522 1290.38 661.522 1308.79ZM1027.61 1139.86H1127.99L1136.7 1201.46L1135.15 1195.91C1147.23 1174.35 1164.37 1156.79 1186.5 1143.37C1208.62 1130.02 1235.67 1123.35 1267.77 1123.35C1300.36 1123.35 1327.61 1132.9 1349.38 1152.08C1371.3 1171.33 1382.47 1196.19 1382.89 1226.74V1484.88H1272.4V1267.84C1271.98 1252.59 1267.91 1240.37 1260.25 1231.24C1252.52 1221.97 1239.81 1217.33 1222.04 1217.33C1205.18 1217.33 1190.43 1222.88 1177.65 1233.91C1165.14 1244.94 1155.45 1259.97 1148.64 1278.86C1141.68 1297.83 1138.24 1319.67 1138.24 1344.4V1484.88H1027.75V1139.86H1027.61ZM1636.95 1494.29C1604.85 1494.29 1576.19 1486.77 1550.9 1471.74C1525.62 1456.78 1505.81 1435.15 1491.41 1406.7C1476.87 1378.25 1469.64 1344.61 1469.64 1305.69C1469.64 1266.78 1477.5 1233.63 1493.31 1206.23C1509.11 1178.84 1530.67 1158.12 1558 1143.86C1585.32 1129.67 1616.37 1122.58 1651.14 1122.58C1673.26 1122.58 1694.47 1126.02 1714.77 1132.83C1735 1139.65 1751.93 1150.18 1765.63 1164.44V1199.14V862.128H1875.34V1484.88H1764.85V1417.8L1773.56 1441.47C1755.65 1456.22 1735.71 1468.65 1713.58 1478.91C1691.38 1489.16 1665.89 1494.29 1636.95 1494.29ZM1673.26 1401.15C1688.01 1401.15 1701.08 1399.18 1712.39 1395.18C1723.62 1391.32 1733.67 1385.49 1742.38 1377.83C1751.02 1370.25 1758.46 1360.69 1764.78 1349.1V1264.6C1760.57 1253.01 1754.18 1243.11 1745.54 1234.89C1736.83 1226.82 1726.29 1220.49 1713.93 1215.93C1701.5 1211.5 1687.94 1209.33 1673.19 1209.33C1656.9 1209.33 1641.79 1213.4 1627.89 1221.48C1613.91 1229.69 1602.67 1240.86 1594.24 1255.12C1585.81 1269.31 1581.6 1285.68 1581.6 1304.08C1581.6 1322.48 1585.81 1339.06 1594.24 1353.81C1602.67 1368.56 1613.84 1380.15 1627.89 1388.51C1641.79 1396.94 1656.9 1401.15 1673.26 1401.15ZM2134.18 1494.29C2102.08 1494.29 2073.07 1487.83 2047.01 1474.83C2020.88 1461.98 2000.23 1442.17 1984.99 1415.34C1969.75 1388.51 1962.09 1354.3 1962.09 1312.72C1962.09 1273.81 1969.96 1240.09 1985.76 1211.71C2001.56 1183.27 2022.36 1161.28 2048.13 1145.76C2073.91 1130.3 2101.31 1122.58 2130.24 1122.58C2164.45 1122.58 2190.37 1128.2 2208.07 1139.44C2225.63 1150.82 2240.24 1163.32 2251.83 1177.01L2247.12 1190.43L2257.38 1139.93H2360V1484.88H2249.51V1409.86L2258.22 1433.53C2257.17 1433.53 2254.01 1436.55 2248.74 1442.52C2243.47 1448.63 2235.75 1455.73 2225.56 1463.81C2215.23 1472.02 2202.59 1479.19 2187.7 1485.3C2172.53 1491.27 2154.69 1494.29 2134.18 1494.29ZM2165.79 1404.31C2178.92 1404.31 2190.79 1402.35 2201.33 1398.34C2211.86 1394.48 2221.06 1388.65 2228.93 1380.99C2236.8 1373.41 2243.68 1363.85 2249.44 1352.26V1267.84C2245.23 1256.25 2238.91 1246.34 2230.48 1238.12C2222.05 1230.05 2212.07 1223.79 2200.48 1219.3C2188.9 1214.8 2176.04 1212.49 2161.78 1212.49C2145.98 1212.49 2131.44 1216.56 2118.02 1224.64C2104.54 1232.86 2093.86 1244.02 2085.99 1258.28C2078.13 1272.47 2074.12 1288.84 2074.12 1307.24C2074.12 1325.64 2078.34 1342.22 2086.77 1356.97C2095.19 1371.72 2106.43 1383.31 2120.41 1391.67C2134.32 1400.1 2149.42 1404.31 2165.79 1404.31Z" fill="white"/>
<path d="M0 804.11V0H2360V804.11H2301.98V57.9482H58.0185V804.11H0ZM0 1563.27V2367.38H2360V1563.27H2301.98V2309.43H58.0185V1563.27H0Z" fill="white"/>
</svg>
