<svg width="953" height="955" viewBox="0 0 953 955" fill="none" xmlns="http://www.w3.org/2000/svg">
<path d="M81.2362 459.819H119.12L149.693 531.45L141.42 532.073L168.168 459.791H211.464L148.73 607.217L104.159 514.874L63.4136 607.217L0.0567017 459.791H43.3524L77.0993 537.173L61.8268 534.935L88.575 475.715L81.2362 459.819ZM221.947 527.653C221.947 513.429 225.291 500.706 231.95 489.429C238.665 478.18 248.072 469.311 260.171 462.823C272.27 456.362 286.183 453.16 301.88 453.16C317.804 453.16 331.604 456.391 343.278 462.823C354.952 469.311 363.905 478.18 370.139 489.429C376.429 500.678 379.575 513.429 379.575 527.653C379.575 541.877 376.429 554.656 370.139 565.99C363.905 577.381 354.952 586.363 343.278 592.936C331.604 599.51 317.606 602.797 301.257 602.797C285.984 602.797 272.327 599.822 260.313 593.872C248.327 587.921 238.948 579.336 232.176 568.087C225.348 556.838 221.947 543.35 221.947 527.653ZM266.858 527.964C266.858 535.19 268.332 541.707 271.307 547.516C274.282 553.381 278.306 558 283.406 561.4C288.506 564.8 294.23 566.5 300.605 566.5C307.604 566.5 313.668 564.8 318.74 561.4C323.84 558 327.75 553.381 330.527 547.516C333.275 541.707 334.664 535.19 334.664 527.964C334.664 520.541 333.275 513.967 330.527 508.215C327.75 502.491 323.84 497.93 318.74 494.529C313.639 491.129 307.604 489.429 300.605 489.429C294.23 489.429 288.506 491.129 283.406 494.529C278.306 497.93 274.282 502.491 271.307 508.215C268.332 513.967 266.858 520.541 266.858 527.964ZM414.54 459.819H455.03L458.544 484.669L457.921 482.43C462.794 473.731 469.708 466.648 478.633 461.236C487.559 455.852 498.468 453.16 511.417 453.16C524.564 453.16 535.558 457.014 544.342 464.749C553.183 472.513 557.688 482.544 557.858 494.869V599H513.287V511.445C513.117 505.297 511.474 500.366 508.385 496.683C505.268 492.942 500.14 491.072 492.971 491.072C486.171 491.072 480.22 493.311 475.063 497.759C470.02 502.208 466.109 508.272 463.361 515.894C460.556 523.544 459.167 532.356 459.167 542.33V599H414.596V459.819H414.54ZM660.345 602.797C647.396 602.797 635.836 599.765 625.635 593.702C615.434 587.666 607.444 578.939 601.635 567.463C595.77 555.988 592.851 542.415 592.851 526.718C592.851 511.02 596.025 497.646 602.4 486.595C608.776 475.545 617.475 467.186 628.497 461.434C639.519 455.71 652.043 452.849 666.069 452.849C674.994 452.849 683.552 454.237 691.74 456.986C699.901 459.734 706.729 463.984 712.255 469.736V483.734V347.783H756.514V599H711.943V571.94L715.457 581.489C708.231 587.44 700.184 592.455 691.259 596.592C682.305 600.729 672.019 602.797 660.345 602.797ZM674.994 565.225C680.945 565.225 686.215 564.432 690.777 562.816C695.31 561.258 699.362 558.906 702.876 555.818C706.361 552.758 709.365 548.904 711.915 544.229V510.142C710.215 505.467 707.636 501.471 704.151 498.156C700.637 494.898 696.387 492.347 691.4 490.506C686.385 488.721 680.916 487.842 674.966 487.842C668.392 487.842 662.3 489.486 656.69 492.744C651.051 496.059 646.518 500.565 643.118 506.317C639.717 512.04 638.017 518.642 638.017 526.066C638.017 533.49 639.717 540.177 643.118 546.127C646.518 552.077 651.023 556.753 656.69 560.125C662.3 563.525 668.392 565.225 674.994 565.225ZM860.928 602.797C847.979 602.797 836.277 600.19 825.764 594.948C815.224 589.763 806.893 581.773 800.745 570.949C794.596 560.125 791.508 546.326 791.508 529.551C791.508 513.854 794.681 500.253 801.056 488.806C807.432 477.33 815.819 468.461 826.218 462.199C836.617 455.965 847.667 452.849 859.341 452.849C873.141 452.849 883.596 455.115 890.736 459.649C897.82 464.239 903.714 469.283 908.389 474.808L906.491 480.22L910.628 459.847H952.025V599H907.454V568.738L910.968 578.287C910.543 578.287 909.268 579.506 907.142 581.914C905.017 584.379 901.9 587.241 897.792 590.5C893.627 593.815 888.526 596.705 882.519 599.17C876.399 601.579 869.202 602.797 860.928 602.797ZM873.679 566.5C878.977 566.5 883.766 565.707 888.016 564.091C892.267 562.533 895.978 560.181 899.152 557.093C902.325 554.033 905.102 550.179 907.426 545.504V511.445C905.726 506.77 903.175 502.775 899.775 499.46C896.375 496.201 892.352 493.679 887.676 491.866C883.001 490.052 877.816 489.117 872.064 489.117C865.688 489.117 859.823 490.761 854.411 494.019C848.971 497.334 844.664 501.84 841.49 507.592C838.317 513.315 836.702 519.917 836.702 527.341C836.702 534.765 838.402 541.452 841.802 547.402C845.202 553.353 849.736 558.028 855.374 561.4C860.985 564.8 867.077 566.5 873.679 566.5Z" fill="black"/>
<path d="M0 324.378V0H952.025V324.378H928.62V23.3763H23.4047V324.378H0ZM0 630.622V955H952.025V630.622H928.62V931.624H23.4047V630.622H0Z" fill="black"/>
</svg>
