<svg width="47" height="47" viewBox="0 0 47 47" fill="none" xmlns="http://www.w3.org/2000/svg">
<circle cx="23.5" cy="23.5" r="23.5" fill="white"/>
<path d="M36.522 31.035C35.7094 31.7976 34.5459 31.8753 33.5193 31.9439C32.8646 31.9876 32.1878 32.0327 31.7921 32.2505C31.4103 32.4607 31.0167 33.0004 30.636 33.5222C30.0235 34.3617 29.3294 35.3133 28.2302 35.5945C27.1704 35.866 26.125 35.3786 25.2026 34.9487C24.5975 34.6666 23.9717 34.375 23.5 34.375C23.0284 34.375 22.4026 34.6666 21.7974 34.9487C21.0599 35.2923 20.2435 35.6728 19.4042 35.6728C19.1903 35.6734 18.9772 35.6471 18.7699 35.5945C17.6707 35.3133 16.9765 34.3617 16.3639 33.5221C15.9833 33.0004 15.5897 32.4607 15.208 32.2505C14.8123 32.0327 14.1354 31.9876 13.4808 31.9439C12.4542 31.8753 11.2906 31.7976 10.4781 31.035C10.3701 30.9337 10.2887 30.8075 10.2408 30.6674C10.1929 30.5274 10.18 30.3777 10.2033 30.2315C10.2266 30.0854 10.2854 29.9471 10.3744 29.8289C10.4635 29.7107 10.5802 29.6161 10.7143 29.5534C10.745 29.5385 12.126 28.864 13.4836 27.1378C14.3492 26.0257 15.0144 24.7712 15.4492 23.4306L13.1947 22.5289C12.9717 22.4396 12.7932 22.2653 12.6986 22.0445C12.604 21.8236 12.601 21.5742 12.6902 21.3511C12.7794 21.128 12.9536 20.9495 13.1744 20.8548C13.3953 20.7601 13.6446 20.757 13.8678 20.8461L15.9128 21.6641C16.1426 20.4774 16.2556 19.2712 16.25 18.0625C16.25 16.1397 17.0138 14.2956 18.3735 12.936C19.7331 11.5763 21.5772 10.8125 23.5 10.8125C25.4228 10.8125 27.2669 11.5763 28.6265 12.936C29.9862 14.2956 30.75 16.1397 30.75 18.0625C30.7444 19.2712 30.8574 20.4774 31.0872 21.6641L33.1322 20.8461C33.3551 20.7578 33.604 20.7615 33.8242 20.8563C34.0445 20.9512 34.2182 21.1294 34.3072 21.3521C34.3963 21.5747 34.3935 21.8236 34.2994 22.0442C34.2053 22.2648 34.0277 22.4391 33.8053 22.5289L31.5509 23.4308C31.9856 24.7713 32.6508 26.0258 33.5165 27.1378C34.8826 28.8749 36.2723 29.5469 36.2862 29.5536C36.4198 29.6168 36.5359 29.7116 36.6246 29.8299C36.7132 29.9481 36.7717 30.0862 36.7949 30.2321C36.8181 30.378 36.8054 30.5274 36.7578 30.6673C36.7103 30.8072 36.6293 30.9334 36.522 31.035H36.522Z" fill="#FF7346"/>
</svg>
