<svg width="29" height="29" viewBox="0 0 29 29" fill="none" xmlns="http://www.w3.org/2000/svg">
<path d="M27.8284 8.79707L24.4113 12.2141C23.7291 20.1303 17.0531 26.2813 9.0625 26.2813C7.41716 26.2813 6.06121 26.0204 5.03222 25.5059C4.2018 25.0907 3.86163 24.6451 3.77722 24.5183C3.70149 24.4047 3.65241 24.2755 3.63363 24.1403C3.61485 24.0051 3.62686 23.8674 3.66876 23.7374C3.71067 23.6075 3.78138 23.4887 3.87563 23.39C3.96987 23.2912 4.08521 23.215 4.21303 23.1671C4.24218 23.1561 6.91458 22.1297 8.64179 20.1755C7.56746 19.4105 6.62192 18.4791 5.84073 17.4165C4.28787 15.3091 2.64552 11.6492 3.6396 6.18164C3.66919 6.01892 3.74274 5.86741 3.85228 5.7435C3.96183 5.6196 4.10319 5.52803 4.26105 5.47872C4.41892 5.42941 4.58727 5.42424 4.74786 5.46377C4.90845 5.5033 5.05516 5.58601 5.17211 5.70296C5.21204 5.74279 8.98312 9.4606 13.5931 10.6615L13.5937 9.96832C13.6035 8.51734 14.189 7.12961 15.2216 6.11014C16.2541 5.09068 17.6492 4.52292 19.1002 4.53165C20.0428 4.54471 20.9659 4.80202 21.7793 5.27847C22.5928 5.75491 23.2687 6.43419 23.7412 7.24996L27.1875 7.25002C27.3667 7.25002 27.542 7.30317 27.691 7.40274C27.84 7.50232 27.9562 7.64385 28.0248 7.80945C28.0934 7.97504 28.1113 8.15725 28.0764 8.33305C28.0414 8.50884 27.9551 8.67032 27.8284 8.79707Z" fill="#FF7346"/>
</svg>
