<svg width="29" height="29" viewBox="0 0 29 29" fill="none" xmlns="http://www.w3.org/2000/svg">
<path d="M26.5453 7.90673C26.4378 7.48991 26.2328 7.10462 25.9471 6.78266C25.6614 6.4607 25.3032 6.21129 24.9021 6.05501C21.02 4.56322 14.8375 4.57566 14.5 4.57743C14.1626 4.57472 7.98008 4.56316 4.09793 6.05501C3.69687 6.21128 3.33871 6.46067 3.05302 6.78262C2.76732 7.10456 2.56227 7.48982 2.4548 7.90662C2.16175 9.03158 1.8125 11.0886 1.8125 14.5C1.8125 17.9113 2.16175 19.9684 2.45474 21.0933C2.5622 21.5101 2.76724 21.8954 3.05293 22.2173C3.33863 22.5393 3.6968 22.7887 4.09787 22.945C7.81419 24.3731 13.6386 24.4228 14.4254 24.4228C14.4957 24.4228 14.5043 24.4228 14.5746 24.4228C15.362 24.4227 21.186 24.373 24.9021 22.945C25.3031 22.7887 25.6613 22.5393 25.947 22.2174C26.2327 21.8954 26.4377 21.5102 26.5452 21.0934C26.8383 19.9684 27.1875 17.9114 27.1875 14.5C27.1875 11.0887 26.8383 9.03163 26.5453 7.90673ZM18.3763 14.877L12.9388 18.502C12.8706 18.5475 12.7913 18.5736 12.7094 18.5776C12.6274 18.5816 12.546 18.5632 12.4737 18.5245C12.4014 18.4858 12.3409 18.4282 12.2988 18.3579C12.2566 18.2875 12.2344 18.207 12.2344 18.125V10.875C12.2344 10.793 12.2566 10.7125 12.2988 10.6421C12.3409 10.5718 12.4014 10.5142 12.4737 10.4755C12.546 10.4368 12.6274 10.4184 12.7094 10.4224C12.7913 10.4263 12.8706 10.4525 12.9388 10.498L18.3763 14.123C18.4384 14.1644 18.4893 14.2204 18.5245 14.2862C18.5597 14.352 18.5781 14.4254 18.5781 14.5C18.5781 14.5746 18.5597 14.648 18.5245 14.7138C18.4893 14.7796 18.4384 14.8356 18.3763 14.877Z" fill="#FF7346"/>
</svg>
